{"title":"Splice-AC3-XviD-BRRip[Eng]2009 2Lions-Team","uid":5857402,"size":1355037398,"categoryP":"video","categoryS":"movies","magnet":"?xt=urn:btih:087c202089b6e152b45cda63e26bae16bf7a1a51&amp;dn=Splice-AC3-XviD-BRRip%5BEng%5D2009+2Lions-Team&amp;tr=udp%3A%2F%2Ftracker.openbittorrent.com%3A80&amp;tr=udp%3A%2F%2Fopen.demonii.com%3A1337&amp;tr=udp%3A%2F%2Ftracker.coppersurfer.tk%3A6969&amp;tr=udp%3A%2F%2Fexodus.desync.com%3A6969","seeders":0,"leechers":0,"uploader":"FatFreddy31","files":-1,"time":1285862127,"description":"Elsa and Clive, two young rebellious scientists, defy legal and ethical boundaries and forge ahead with a dangerous experiment: splicing together human and animal DNA to create a new organism. Named &quot;Dren&quot;, the creature rapidly develops from a deformed female infant into a beautiful but dangerous winged human-chimera, who forges a bond with both of her creators - only to have that bond turn deadly.\n &lt;a href=&quot;\nhttp://www.imdb.com/title/tt1017460/&quot; rel=&quot;nofollow&quot; target=&quot;_NEW&quot;&gt;\nhttp://www.imdb.com/title/tt1017460/&lt;/a&gt;\n\nSubtitles (srt) : Dutch, English.\n\nDe twee rebelse wetenschappers, Elsa en Clive, tarten wettelijke en ethische grenzen door 'het leven' te onderwerpen aan een gevaarlijk experiment. Zij willen experimenteren met menselijk en dierlijk DNA en deze verenigen. Dit experiment resulteert in een geheel nieuw organisme, genaamd 'Dren'.\n &lt;a href=&quot;\nhttp://www.moviemeter.nl/film/46772&quot; rel=&quot;nofollow&quot; target=&quot;_NEW&quot;&gt;\nhttp://www.moviemeter.nl/film/46772&lt;/a&gt;\n\nOndertitels (srt) : Engels, Nederlands.\n\nGeneral\nComplete name                    : Splice-AC3-XviD-BRRip[Eng]2009 2Lions-Team\\Splice-AC3-XviD-BRRip[Eng]2009 2Lions-Team.avi\nFormat                           : AVI\nFormat/Info                      : Audio Video Interleave\nFile size                        : 1.26 GiB\nDuration                         : 1h 43mn\nOverall bit rate                 : 1 738 Kbps\nWriting application              : VirtualDubMod 1.5.4.1 (build 2178/release)\nWriting library                  : VirtualDubMod build 2178/release\nSource                           : Splice.720p.BluRay.x264-REFiNED\n\nVideo\nID                               : 0\nFormat                           : MPEG-4 Visual\nFormat profile                   : Simple@L3\nFormat settings, BVOP            : No\nFormat settings, QPel            : No\nFormat settings, GMC             : No warppoints\nFormat settings, Matrix          : Default (H.263)\nCodec ID                         : XVID\nCodec ID/Hint                    : XviD\nDuration                         : 1h 43mn\nBit rate                         : 1 280 Kbps\nWidth                            : 624 pixels\nHeight                           : 336 pixels\nDisplay aspect ratio             : 1.857\nFrame rate                       : 23.976 fps\nColor space                      : YUV\nChroma subsampling               : 4:2:0\nBit depth                        : 8 bits\nScan type                        : Progressive\nBits/(Pixel*Frame)               : 0.255\nStream size                      : 952 MiB (74%)\nWriting library                  : XviD 1.1.2 (UTC 2006-11-01)\n\nAudio\nID                               : 1\nFormat                           : AC-3\nFormat/Info                      : Audio Coding 3\nMode extension                   : CM (complete main)\nCodec ID                         : 2000\nDuration                         : 1h 43mn\nBit rate mode                    : Constant\nBit rate                         : 448 Kbps\nChannel(s)                       : 6 channels\nChannel positions                : Front: L C R, Side: L R, LFE\nSampling rate                    : 48.0 KHz\nBit depth                        : 16 bits\nStream size                      : 333 MiB (26%)\nAlignment                        : Split accross interleaves\nInterleave, duration             : 42 ms (1.00 video frame)\nInterleave, preload duration     : 500 ms\n\nThanks to BoH_BoH_Spot_MaN for the source, and SimplyReleaseS for the Dutch subs.Nice work peeps!\n\nBrought to you by \n2Lions Team\n\nmeer zien??\n                   \nKom dan eens kijken op ons NIEUWE forum \n            &lt;a href=&quot;\nhttp://www.2lions-site.nl/&quot; rel=&quot;nofollow&quot; target=&quot;_NEW&quot;&gt;\nhttp://www.2lions-site.nl/&lt;/a&gt;\n\n2Lions the site to be for all your Dutch MOVIES and more\n\n******************************************\n\nDON T HIT AND RUN Niet gelijk afhaken als de FILM binnen is blijf seeden. \n\nDon`t quit after you finished the download, but keep seeding\n\nThere are fake torrents from uploaders who use our team name.\nThose are not ours, or members from our team.\nWe 2Lions-Team are not responsible for the fake posts on our name\n\nWij 2Lions-Team zijn niet verantwoordelijk voor die zieke FAKE posten die op onze naam worden gedaan\n\nPlease check our site !!!\n\nto the fakers , get a life !!!","torrent":{"xt":"urn:btih:087c202089b6e152b45cda63e26bae16bf7a1a51","amp;dn":"Splice-AC3-XviD-BRRip%5BEng%5D2009+2Lions-Team","amp;tr":["udp%3A%2F%2Ftracker.openbittorrent.com%3A80","udp%3A%2F%2Fopen.demonii.com%3A1337","udp%3A%2F%2Ftracker.coppersurfer.tk%3A6969","udp%3A%2F%2Fexodus.desync.com%3A6969"],"infoHash":"087c202089b6e152b45cda63e26bae16bf7a1a51","infoHashBuffer":{"type":"Buffer","data":[8,124,32,32,137,182,225,82,180,92,218,99,226,107,174,22,191,122,26,81]},"announce":[],"urlList":[]}}